<?xml version="1.0" encoding="UTF-8" standalone="no"?>
<!-- Created with Inkscape (http://www.inkscape.org/) -->

<svg
   width="65mm"
   height="10mm"
   viewBox="0 0 65 10"
   version="1.1"
   id="svg5"
   inkscape:version="1.2 (dc2aeda, 2022-05-15)"
   sodipodi:docname="notes.svg"
   xmlns:inkscape="http://www.inkscape.org/namespaces/inkscape"
   xmlns:sodipodi="http://sodipodi.sourceforge.net/DTD/sodipodi-0.dtd"
   xmlns="http://www.w3.org/2000/svg"
   xmlns:svg="http://www.w3.org/2000/svg">
  <sodipodi:namedview
     id="namedview7"
     pagecolor="#ffffff"
     bordercolor="#000000"
     borderopacity="0.25"
     inkscape:showpageshadow="2"
     inkscape:pageopacity="0.0"
     inkscape:pagecheckerboard="0"
     inkscape:deskcolor="#d1d1d1"
     inkscape:document-units="mm"
     showgrid="false"
     inkscape:zoom="1.1893044"
     inkscape:cx="240.4767"
     inkscape:cy="90.38897"
     inkscape:window-width="1512"
     inkscape:window-height="861"
     inkscape:window-x="0"
     inkscape:window-y="33"
     inkscape:window-maximized="1"
     inkscape:current-layer="layer1" />
  <defs
     id="defs2" />
  <g
     inkscape:label="图层 1"
     inkscape:groupmode="layer"
     id="layer1">
    <g
       aria-label="AirNotes"
       transform="scale(0.99857346,1.0014286)"
       id="text741"
       style="font-weight:bold;font-size:13.7734px;font-family:'PT Mono';-inkscape-font-specification:'PT Mono, Bold';fill:#00267d;stroke-width:1.54613;stroke-linejoin:round;stroke-opacity:0.284123;paint-order:stroke fill markers">
      <path
         d="M 5.4267195,7.6580364 H 2.5480788 L 1.8869556,9.7929134 H -2.1624565e-7 L 3.1127883,0.15153322 H 4.9997441 L 8.0987592,9.7929134 H 6.1153895 Z M 2.9888277,6.1429624 h 2.06601 L 4.0769263,2.9199867 H 3.9529657 Z"
         id="path1732" />
      <path
         d="m 8.994009,8.2778394 h 2.424118 V 4.4212873 H 8.994009 v -1.515074 h 4.214661 v 5.3716261 h 2.548079 v 1.515074 h -6.76274 z m 2.093557,-7.2448086 q 0,-0.42697537 0.316788,-0.72999017 0.316788,-0.303014811175 0.881498,-0.303014811175 0.578482,0 0.922818,0.303014811175 0.344335,0.3030148 0.344335,0.72999017 0,0.4407489 -0.344335,0.7299903 -0.344336,0.275468 -0.922818,0.275468 -0.56471,0 -0.881498,-0.275468 -0.316788,-0.2892414 -0.316788,-0.7299903 z"
         id="path1729" />
      <path
         d="m 16.98256,8.2778394 h 1.707902 V 4.4212873 H 16.98256 v -1.515074 h 3.099015 l 0.206601,0.9090444 h 0.05509 q 0.385655,-0.4545222 0.881497,-0.757537 0.495843,-0.3030148 1.156966,-0.3030148 0.826404,0 1.2947,0.6060296 0.482069,0.6060296 0.482069,2.0246898 h -1.611488 q 0,-0.4958424 -0.151508,-0.7162168 -0.137734,-0.2341478 -0.454522,-0.2341478 -0.550936,0 -0.895271,0.275468 -0.330561,0.275468 -0.564709,0.6335764 v 2.9337343 h 2.988828 v 1.515074 H 16.98256 Z"
         id="path1726" />
      <path
         d="m 27.257495,4.0907257 h -0.06887 l 0.08264,1.1431922 V 9.7929134 H 25.480727 V 0.15153322 h 1.652808 l 3.333163,5.89501538 h 0.06887 L 30.411604,4.8895829 V 0.15153322 h 1.790542 V 9.7929134 h -1.652808 z"
         id="path1723" />
      <path
         d="m 33.455504,6.3495634 q 0,-0.8677243 0.261695,-1.5426209 0.261695,-0.6748966 0.743764,-1.1431922 0.482069,-0.4682956 1.143192,-0.7024434 0.674897,-0.2479212 1.501301,-0.2479212 0.867724,0 1.54262,0.2616946 0.68867,0.2616946 1.156966,0.7437636 0.468296,0.4682956 0.702443,1.1431922 0.247922,0.6748966 0.247922,1.4875273 0,0.8677242 -0.261695,1.5426208 -0.261695,0.6748966 -0.743764,1.1431922 -0.482069,0.4682956 -1.156965,0.7162168 -0.661123,0.2341478 -1.487527,0.2341478 -0.867725,0 -1.556395,-0.2616946 Q 34.874165,9.4623518 34.405869,8.9940562 33.937573,8.5119872 33.689652,7.8370906 33.455504,7.162194 33.455504,6.3495634 Z m 1.845636,0 q 0,0.4545222 0.123961,0.8401774 0.12396,0.3856552 0.358108,0.6748966 0.234148,0.2892414 0.56471,0.4545222 0.330561,0.1515074 0.757537,0.1515074 0.798857,0 1.294699,-0.5096158 0.509616,-0.5096158 0.509616,-1.6114878 0,-0.9503647 -0.468296,-1.5288475 -0.468295,-0.5922562 -1.336019,-0.5922562 -0.385656,0 -0.716217,0.1239606 -0.330562,0.1101872 -0.578483,0.3718818 -0.234148,0.2616946 -0.371882,0.6611232 -0.137734,0.3994286 -0.137734,0.9641381 z"
         id="path1720" />
      <path
         d="m 42.835169,4.4212873 h -1.363567 v -1.515074 h 1.363567 V 1.3360456 L 44.625711,0.82642984 V 2.9062133 h 3.608631 v 1.515074 h -3.608631 v 1.9695963 q 0,1.0605518 0.399429,1.5426208 0.399428,0.4682956 1.115645,0.4682956 0.371882,0 0.674897,-0.08264 0.303014,-0.096414 0.537162,-0.2341478 0.247921,-0.137734 0.440749,-0.3030148 0.206601,-0.1652808 0.371882,-0.3030148 l 0.826404,1.239606 q -0.234148,0.275468 -0.592256,0.5096158 -0.344335,0.2203744 -0.757537,0.3994286 -0.399429,0.1652808 -0.840178,0.2616946 -0.440749,0.096414 -0.867724,0.096414 -1.542621,0 -2.327705,-0.8539508 -0.77131,-0.8677242 -0.77131,-2.7409066 z"
         id="path1717" />
      <path
         d="m 56.856469,9.0629232 q -0.179054,0.1652808 -0.468295,0.3305616 -0.275468,0.1515074 -0.661124,0.2892414 -0.371881,0.137734 -0.826404,0.2203744 -0.454522,0.08264 -0.964138,0.08264 -0.881497,0 -1.583941,-0.2479212 Q 51.663897,9.4898986 51.181828,9.021603 50.699759,8.539534 50.438065,7.8784108 50.190143,7.2035142 50.190143,6.3495634 q 0,-0.9090445 0.289242,-1.5839411 0.289241,-0.68867 0.785084,-1.1431922 0.509616,-0.4545222 1.184512,-0.6748966 0.674897,-0.2341478 1.459981,-0.2341478 0.523389,0 1.074325,0.137734 0.564709,0.137734 1.033005,0.482069 0.468295,0.3305616 0.757537,0.895271 0.303015,0.5647094 0.303015,1.4324336 0,0.5922563 -0.137734,1.2809263 h -4.958424 q 0.01377,0.4407488 0.179054,0.7437636 0.179054,0.3030148 0.454522,0.4958424 0.289241,0.1928276 0.64735,0.2892414 0.371882,0.08264 0.785084,0.08264 0.826404,0 1.349793,-0.1928276 0.537162,-0.1928276 0.867724,-0.4682956 z M 53.881415,4.1458193 q -0.358109,0 -0.674897,0.096414 -0.316788,0.096414 -0.578483,0.2892414 -0.247921,0.1790542 -0.413202,0.4545222 -0.16528,0.275468 -0.192827,0.619803 h 3.388256 q 0,-0.6748966 -0.385655,-1.0605518 -0.371882,-0.3994286 -1.143192,-0.3994286 z"
         id="path1714" />
      <path
         d="m 63.302399,7.8921842 q 0,-0.275468 -0.344335,-0.4407488 Q 62.627503,7.2861546 62.13166,7.1484206 61.635818,7.0106866 61.043562,6.8729526 60.451306,6.7214452 59.955463,6.473524 59.459621,6.2118294 59.115286,5.8261741 58.784724,5.4267455 58.784724,4.8069425 q 0,-0.5096158 0.220374,-0.895271 0.234148,-0.3856552 0.619804,-0.6473498 0.399428,-0.275468 0.936591,-0.413202 0.550936,-0.137734 1.184512,-0.137734 0.674897,0 1.184513,0.096414 0.509615,0.096414 0.881497,0.2341478 0.385655,0.137734 0.64735,0.3167882 0.275468,0.1652808 0.468296,0.3030148 L 64.170124,4.8895829 Q 63.963523,4.7656223 63.688055,4.6416617 63.42636,4.5039277 63.123345,4.3937405 62.834104,4.2835533 62.503542,4.2146863 q -0.316788,-0.068867 -0.633576,-0.068867 -0.578483,0 -0.936591,0.1515074 -0.358109,0.1515074 -0.358109,0.4682956 0,0.2479212 0.330562,0.3994286 0.344335,0.1515074 0.840177,0.2892414 0.495843,0.1239606 1.088099,0.275468 0.592256,0.1515074 1.088098,0.3994287 0.495843,0.2341478 0.826404,0.619803 0.344335,0.3856552 0.344335,0.9916848 0,1.0467784 -0.77131,1.652808 -0.757537,0.5922562 -2.258838,0.5922562 -1.184512,0 -2.052236,-0.344335 -0.853951,-0.3581084 -1.37734,-0.826404 l 0.826404,-1.2946996 q 0.179054,0.1515074 0.468295,0.344335 0.303015,0.1790542 0.674897,0.3305616 0.371882,0.1515074 0.785084,0.2616946 0.426975,0.096414 0.840177,0.096414 0.440749,0 0.757537,-0.1515074 0.316788,-0.1515074 0.316788,-0.5096158 z"
         id="path1711" />
    </g>
  </g>
</svg>
