<svg viewBox="0 0 24 24" xmlns="http://www.w3.org/2000/svg" fill="none">
  <g>
    <path
        d="M2 12C2 7.28595 2 4.92893 3.46447 3.46447C4.92893 2 7.28595 2 12 2C16.714 2 19.0711 2 20.5355 3.46447C22 4.92893 22 7.28595 22 12C22 16.714 22 19.0711 20.5355 20.5355C19.0711 22 16.714 22 12 22C7.28595 22 4.92893 22 3.46447 20.5355C2 19.0711 2 16.714 2 12Z"
        stroke="#123F68" stroke-width="1.5"/>
    <g transform="translate(1.3,1.5) scale(0.0402, 0.041)">
      <path
          d="M156.744,501.384l-29.488-12.456c136.296-322.712,4.624-463.2,3.28-464.616l22.928-22.32 C159.56,8.248,301.208,159.304,156.744,501.384z"
          fill="#123F68"/>
    </g>
    <g transform="translate(1,1.5) scale(0.0402, 0.041)">
      <path
          d="M342.168,501.384l-29.488-12.456c136.296-322.712,4.624-463.2,3.28-464.616l22.928-22.32 C344.992,8.248,486.64,159.304,342.168,501.384z"
          fill="#123F68"/>
    </g>
    <g transform="translate(1.45,1) scale(0.0402, 0.041)">
      <path
          d="M502.488,267.144c-111.824-3.592-161.76-33.936-205.816-60.696c-27.12-16.472-52.736-32-91.368-40.872 C119.2,145.872,24.56,195.688,23.616,196.192L8.536,168c4.288-2.296,106.24-55.92,203.904-33.6c43.68,10,72.744,27.648,100.8,44.72 c42.76,25.904,86.856,52.712,190.272,56.08L502.488,267.144z"
          fill="#123F68"/>
    </g>
    <g transform="translate(1.45,-0.2) scale(0.0402, 0.041)">
      <path
          d="M489.168,445.304c-123.888,0-179.112-35.472-228.048-66.888c-21.744-15.416-45.528-27.728-70.664-36.576 c-93.16-28.896-159.872,40.96-162.664,43.944L4.336,364c3.336-3.6,82.864-87.72,195.608-52.744 c27.936,9.616,54.36,23.152,78.48,40.208c49.192,31.6,100.12,64.432,224.24,61.672l0.672,32 C498.52,445.248,493.792,445.304,489.168,445.304z"
          fill="#123F68"/>
    </g>
  </g>
</svg>