<svg fill="#123F68" height="200px" width="200px" version="1.1" xmlns="http://www.w3.org/2000/svg" viewBox="0 0 512 512"
     xml:space="preserve">
  <g>
    <path
        d="M438.163,72.483l-7.489-38.896c-2.025-10.518-12.194-17.404-22.71-15.378c-9.979,1.921-16.672,11.172-15.604,21.098 C351.553,13.577,304.528,0,256,0C114.841,0,0,114.841,0,256c0,47.132,12.922,93.206,37.367,133.242 c3.655,5.986,10.036,9.29,16.57,9.29c3.446,0,6.934-0.918,10.089-2.844c9.142-5.582,12.027-17.518,6.445-26.659 C49.744,335.082,38.788,295.998,38.788,256c0-119.772,97.442-217.212,217.212-217.212c42.333,0,83.301,12.178,118.564,35.2 l-2.497,1.059c-9.86,4.184-14.463,15.569-10.278,25.428c3.134,7.389,10.311,11.824,17.862,11.824c2.526,0,5.094-0.496,7.566-1.545 l39.476-16.75C435.112,90.431,439.892,81.464,438.163,72.483z"/>
    <path
        d="M470.392,116.051c-5.862-8.964-17.882-11.48-26.846-5.617c-8.964,5.862-11.479,17.883-5.616,26.846 c23.083,35.293,35.283,76.346,35.283,118.719c0,119.772-97.44,217.212-217.212,217.212c-41.665,0-81.989-11.811-116.872-34.128 c10.193-1.901,17.153-11.517,15.63-21.865c-1.559-10.597-11.408-17.92-22.011-16.365l-42.751,6.29 c-5.222,0.768-9.904,3.632-12.968,7.928c-3.064,4.296-4.245,9.657-3.269,14.844l9.097,48.365 c1.752,9.316,9.892,15.813,19.038,15.813c1.19,0,2.396-0.11,3.607-0.337c9.657-1.817,16.265-10.504,15.765-20.055 C161.695,498.776,208.11,512,256,512c141.159,0,256-114.841,256-256C512,206.065,497.612,157.671,470.392,116.051z"/>
    <path
        d="M221.977,288.591c10.711,0,19.394-8.683,19.394-19.394v-88.025c0-10.711-8.683-19.394-19.394-19.394h-63.293 c-10.711,0-19.394,8.683-19.394,19.394v28.509c0,10.711,8.683,19.394,19.394,19.394s19.394-8.683,19.394-19.394v-9.115h24.505 v49.237h-43.899c-10.711,0-19.394,8.683-19.394,19.394v61.633c0,10.711,8.683,19.394,19.394,19.394h63.293 c10.711,0,19.394-8.683,19.394-19.394s-8.683-19.394-19.394-19.394h-43.899v-22.845H221.977z"/>
    <path
        d="M353.316,161.778c-10.711,0-19.394,8.683-19.394,19.394v68.631h-24.505v-68.631c0-10.711-8.683-19.394-19.394-19.394 s-19.394,8.683-19.394,19.394v88.025c0,10.711,8.683,19.394,19.394,19.394h43.899v42.239c0,10.711,8.683,19.393,19.394,19.393 s19.394-8.683,19.394-19.394V181.172C372.71,170.461,364.027,161.778,353.316,161.778z"/>
  </g>
</svg>
