<svg viewBox="0 0 24 24" fill="none" xmlns="http://www.w3.org/2000/svg">
  <g>
    <circle cx="9" cy="10.5" r="2" stroke="#123F68" stroke-width="1.5"></circle>
    <path
        d="M13 16.5C13 17.6046 13 18.5 9 18.5C5 18.5 5 17.6046 5 16.5C5 15.3954 6.79086 14.5 9 14.5C11.2091 14.5 13 15.3954 13 16.5Z"
        stroke="#123F68" stroke-width="1.5"></path>
    <path d="M19 13.5H15" stroke="#123F68" stroke-width="1.5" stroke-linecap="round"></path>
    <path d="M19 10.5H14" stroke="#123F68" stroke-width="1.5" stroke-linecap="round"></path>
    <path d="M19 16.5H16" stroke="#123F68" stroke-width="1.5" stroke-linecap="round"></path>

    {/* <path
      d="M16 4.00195C18.175 4.01406 19.3529 4.11051 20.1213 4.87889C21 5.75757 21 7.17179 21 10.0002V16.0002C21 18.8286 21 20.2429 20.1213 21.1215C19.2426 22.0002 17.8284 22.0002 15 22.0002H9C6.17157 22.0002 4.75736 22.0002 3.87868 21.1215C3 20.2429 3 18.8286 3 16.0002V10.0002C3 7.17179 3 5.75757 3.87868 4.87889C4.64706 4.11051 5.82497 4.01406 8 4.00195"
      stroke="#123F68" stroke-width="1.5"></path> */}

    <path
        d="M16 4.00195C16.175 4.01406 19.3529 4.11051 22.1213 4.87889C23 5.75757 23 7.17179 23 10.0002V16.0002C23 18.8286 23 20.2429 22.1213 21.1215C21.2426 22.0002 19.8284 22.0002 17 22.0002H7C4.17157 22.0002 2.75736 22.0002 1.87868 21.1215C1 20.2429 1 18.8286 1 16.0002V10.0002C1 7.17179 1 5.75757 1.87868 4.87889C2.64706 4.11051 5.82497 4.01406 8 4.00195"
        stroke="#123F68" stroke-width="1.5"></path>
    <path
        d="M8 3.5C8 2.67157 8.67157 2 9.5 2H14.5C15.3284 2 16 2.67157 16 3.5V4.5C16 5.32843 15.3284 6 14.5 6H9.5C8.67157 6 8 5.32843 8 4.5V3.5Z"
        stroke="#123F68" stroke-width="1.5"></path>
  </g>
</svg>

