<svg viewBox="0 0 24 24" fill="none" xmlns="http://www.w3.org/2000/svg">
  <g id="SVGRepo_iconCarrier">
    <circle cx="9" cy="9" r="2" stroke="#123F68" stroke-width="1.5"></circle>
    <path d="M13 15C13 16.1046 13 17 9 17C5 17 5 16.1046 5 15C5 13.8954 6.79086 13 9 13C11.2091 13 13 13.8954 13 15Z"
          stroke="#123F68" stroke-width="1.5"></path>
    <path
        d="M2 12C2 7.47451 2 5.21177 3.17157 3.80589C4.34315 2.4 6.22876 2.4 10 2.4H14C17.7712 2.4 19.6569 2.4 20.8284 3.80589C22 5.21177 22 7.47451 22 12C22 16.5255 22 18.7882 20.8284 20.1941C19.6569 21.6 17.7712 21.6 14 21.6H10C6.22876 21.6 4.34315 21.6 3.17157 20.1941C2 18.7882 2 16.5255 2 12Z"
        stroke="#123F68" stroke-width="1.5"></path>
    <path d="M19 12H15" stroke="#123F68" stroke-width="1.5" stroke-linecap="round"></path>
    <path d="M19 9H14" stroke="#123F68" stroke-width="1.5" stroke-linecap="round"></path>
    <path d="M19 15H16" stroke="#123F68" stroke-width="1.5" stroke-linecap="round"></path>
  </g>
</svg>

